<?xml version="1.0" encoding="utf-8"?>
<!-- Generator: Adobe Illustrator 15.1.0, SVG Export Plug-In . SVG Version: 6.00 Build 0)  -->
<!DOCTYPE svg PUBLIC "-//W3C//DTD SVG 1.1 Tiny//EN" "http://www.w3.org/Graphics/SVG/1.1/DTD/svg11-tiny.dtd">
<svg version="1.1" baseProfile="tiny" id="Capa_1" xmlns="http://www.w3.org/2000/svg" xmlns:xlink="http://www.w3.org/1999/xlink"
	 x="0px" y="0px" width="70.713px" height="70.713px" viewBox="0 0 70.713 70.713" xml:space="preserve">
<g>
	<path fill="#FFFFFF" d="M31.077,6.829H45.95l8.688,17.695L35.537,63.883H3.856l1.258-2.435L31.077,6.829z"/>
	<path fill="#FFFFFF" d="M55.95,28.246c2.387,5.031,8.891,18.792,9.604,20.826c0.012,0.034,0.025,0.067,0.041,0.1
		c0.187,0.385,0.438,1.271,0.205,1.672c-0.138,0.237-0.53,0.318-0.849,0.344H45.098L55.95,28.246 M55.948,25.996L43.576,52.151
		h21.412c3.015-0.213,1.476-3.398,1.476-3.398C65.565,46.191,55.948,25.996,55.948,25.996L55.948,25.996z"/>
</g>
</svg>
