<?xml version="1.0" encoding="utf-8"?>
<!-- Generator: Adobe Illustrator 15.1.0, SVG Export Plug-In . SVG Version: 6.00 Build 0)  -->
<!DOCTYPE svg PUBLIC "-//W3C//DTD SVG 1.1//EN" "http://www.w3.org/Graphics/SVG/1.1/DTD/svg11.dtd">
<svg version="1.1" id="Capa_1" xmlns="http://www.w3.org/2000/svg" xmlns:xlink="http://www.w3.org/1999/xlink" x="0px" y="0px"
	 width="70.713px" height="70.713px" viewBox="0 -22.713 70.713 70.713" enable-background="new 0 -22.713 70.713 70.713"
	 xml:space="preserve">
<g>
	<ellipse fill="#FFFFFF" cx="25.554" cy="-4.992" rx="19.537" ry="7.507"/>
	 <path fill="#FFFFFF" d="M25.554,9.94c10.79,0,19.537-3.362,19.537-7.508c0-0.648-0.216-1.28-0.619-1.879
	  c-0.077-0.114-0.277-0.304-0.635-0.047c-1.092,0.845-2.102,1.313-3.779,1.958c-3.905,1.501-9.056,2.328-14.504,2.328
	  c-5.449,0-10.603-0.827-14.508-2.328C9.368,1.82,8.177,1.221,7.087,0.375C6.881,0.219,6.703,0.452,6.624,0.568
	  c-0.398,0.596-0.61,1.221-0.61,1.866C6.015,6.578,14.763,9.94,25.554,9.94z"
	  />
	  <path fill="#FFFFFF" d="M31.115,27.013c-0.011-0.064-0.029-0.204-0.218-0.181c-1.674,0.169-3.573,0.237-5.342,0.237
		c-5.45,0-10.603-0.827-14.508-2.325c-1.678-0.646-2.637-1.081-3.725-1.923c-0.343-0.193-0.705,0.029-0.813,0.208
		c-0.322,0.541-0.492,1.104-0.492,1.682c0,4.146,8.746,7.51,19.538,7.51c2.335,0,5.25-0.129,7.325-0.417
		c0.185-0.052,0.14-0.21,0.086-0.288C32.199,30.324,31.344,28.596,31.115,27.013z"
	  />
	   <path fill="#FFFFFF" d="M25.554,24.793c2.257,0,3.623-0.109,4.716-0.22c0.305-0.041,0.318-0.228,0.318-0.327
		c0-1.535,0.206-3.017,0.594-4.429c0.045-0.166,0.174-0.495-0.186-0.46c-1.855,0.213-3.464,0.286-5.442,0.286
		c-5.449,0-10.603-0.827-14.508-2.328c-1.678-0.643-2.583-1.042-3.676-1.886c-0.521-0.359-0.754-0.006-0.862,0.173
		c-0.322,0.541-0.493,1.105-0.493,1.683C6.015,21.432,14.763,24.793,25.554,24.793z"
	  />
	   <path fill="#FFFFFF" d="M36.092,11.661c0.191-0.171,0.637-0.595,0.033-0.538c-3.318,0.841-6.546,1.093-10.571,1.093
		c-5.449,0-10.603-0.827-14.508-2.326C9.368,9.245,8.309,8.74,7.22,7.894C6.849,7.642,6.673,7.913,6.585,8.051
		c-0.372,0.579-0.57,1.185-0.57,1.808c0,4.146,8.746,7.508,19.538,7.508c2.298,0,4.065-0.094,6.115-0.375
		c0.445-0.066,0.565-0.337,0.633-0.476C33.227,14.607,34.498,13.085,36.092,11.661z"
	   />
  <g>
	<path fill="#FFFFFF" d="M50.351,22.399c-1.71-0.686-2.204-1.099-2.204-1.849c0-0.598,0.454-1.297,1.731-1.297
		c1.133,0,1.999,0.446,2.009,0.45c0.091,0.049,0.192,0.073,0.292,0.073c0.247,0,0.468-0.149,0.559-0.381l0.311-0.792
		c0.107-0.291-0.054-0.544-0.265-0.636c-0.698-0.301-2.059-0.535-2.07-0.538c-0.023-0.004-0.098-0.021-0.098-0.111
		l-0.006-1.149c0-0.348-0.288-0.63-0.645-0.63h-0.557c-0.355,0-0.646,0.282-0.646,0.63l0.003,1.211
		c0,0.092-0.101,0.132-0.14,0.141c-1.718,0.409-2.792,1.666-2.792,3.254c0,1.979,1.637,2.875,3.403,3.545
		c1.412,0.555,1.988,1.117,1.988,1.941c0,0.896-0.815,1.523-1.985,1.523c-0.997,0-2.347-0.633-2.362-0.639
		c-0.086-0.041-0.177-0.065-0.271-0.065c-0.26,0-0.483,0.157-0.572,0.398l-0.296,0.804
		c-0.104,0.299,0.056,0.543,0.265,0.649c0.83,0.432,2.433,0.688,2.504,0.699c0.02,0,0.117,0.035,0.117,0.126v1.207
		c0,0.344,0.292,0.627,0.647,0.627h0.573c0.357,0,0.646-0.282,0.646-0.627v-1.27c0-0.119,0.089-0.129,0.104-0.135
		c1.831-0.41,2.961-1.75,2.961-3.43C53.556,24.4,52.596,23.287,50.351,22.399z"
	/>
	<path fill="#FFFFFF" d="M49.631,8.439c-8.355,0-15.129,6.772-15.129,15.125c0,8.355,6.773,15.127,15.129,15.127
		c8.353,0,15.126-6.771,15.126-15.127C64.757,15.211,57.983,8.439,49.631,8.439z M49.631,35.188
		c-6.419,0-11.623-5.205-11.623-11.623s5.202-11.621,11.623-11.621c6.416,0,11.62,5.203,11.62,11.621
		S56.049,35.188,49.631,35.188z"
	/>
 </g>
</g>
</svg>
