<?xml version="1.0" encoding="utf-8"?>
<!-- Generator: Adobe Illustrator 15.1.0, SVG Export Plug-In . SVG Version: 6.00 Build 0)  -->
<!DOCTYPE svg PUBLIC "-//W3C//DTD SVG 1.1//EN" "http://www.w3.org/Graphics/SVG/1.1/DTD/svg11.dtd" [
	<!ENTITY ns_extend "http://ns.adobe.com/Extensibility/1.0/">
	<!ENTITY ns_ai "http://ns.adobe.com/AdobeIllustrator/10.0/">
	<!ENTITY ns_graphs "http://ns.adobe.com/Graphs/1.0/">
	<!ENTITY ns_vars "http://ns.adobe.com/Variables/1.0/">
	<!ENTITY ns_imrep "http://ns.adobe.com/ImageReplacement/1.0/">
	<!ENTITY ns_sfw "http://ns.adobe.com/SaveForWeb/1.0/">
	<!ENTITY ns_custom "http://ns.adobe.com/GenericCustomNamespace/1.0/">
	<!ENTITY ns_adobe_xpath "http://ns.adobe.com/XPath/1.0/">
]>
<svg version="1.1" id="Capa_1" xmlns:x="&ns_extend;" xmlns:i="&ns_ai;" xmlns:graph="&ns_graphs;"
	 xmlns="http://www.w3.org/2000/svg" xmlns:xlink="http://www.w3.org/1999/xlink" x="0px" y="0px" width="70.713px"
	 height="70.713px" viewBox="0 0 70.713 70.713" enable-background="new 0 0 70.713 70.713" xml:space="preserve">
<metadata>
	<sfw  xmlns="&ns_sfw;">
		<slices></slices>
		<sliceSourceBounds  height="40.079" width="51.01" y="400.234" x="272.151" bottomLeftOrigin="true"></sliceSourceBounds>
	</sfw>
</metadata>
<g>
	<g>
		<path fill="#FFFFFF" d="M60.483,28.828L47.731,16.076c-0.713-0.711-1.866-0.711-2.576,0c-0.342,0.342-0.533,0.805-0.533,1.288
			v5.466H31.868c-1.006,0-1.821,0.814-1.821,1.822c0,1.006,0.815,1.821,1.821,1.821h14.574c1.008,0,1.822-0.815,1.822-1.821v-2.89
			l8.354,8.355l-8.354,8.354v-2.89c0-1.006-0.814-1.821-1.822-1.821h-20.04v-5.466c-0.001-1.006-0.817-1.822-1.822-1.822
			c-0.483,0-0.947,0.192-1.289,0.534L10.541,39.761c-0.712,0.709-0.712,1.863,0,2.574l12.753,12.754
			c0.341,0.34,0.805,0.533,1.288,0.533c0.239,0.001,0.476-0.047,0.697-0.139c0.681-0.283,1.125-0.946,1.125-1.684v-5.466h12.751
			c1.008,0,1.822-0.815,1.822-1.821c0-1.007-0.814-1.822-1.822-1.822H24.582c-1.006,0-1.822,0.815-1.822,1.822v2.889l-8.355-8.354
			l8.355-8.354v2.89c0,1.005,0.816,1.82,1.822,1.82h20.04v5.467c0,1.007,0.814,1.82,1.822,1.82c0.481,0,0.945-0.19,1.287-0.531
			l12.752-12.754C61.194,30.693,61.194,29.54,60.483,28.828z"/>
	</g>
</g>
</svg>
