<?xml version="1.0" encoding="utf-8"?>
<!-- Generator: Adobe Illustrator 15.1.0, SVG Export Plug-In . SVG Version: 6.00 Build 0)  -->
<!DOCTYPE svg PUBLIC "-//W3C//DTD SVG 1.1//EN" "http://www.w3.org/Graphics/SVG/1.1/DTD/svg11.dtd">
<svg version="1.1" id="Capa_1" xmlns="http://www.w3.org/2000/svg" xmlns:xlink="http://www.w3.org/1999/xlink" x="0px" y="0px"
	 width="70.643px" height="70.643px" viewBox="0 -22.643 70.643 70.643" enable-background="new 0 -22.643 70.643 70.643"
	 xml:space="preserve">
 <g>
 <path fill="#FFFFFF" d="M62.758,15.208L49.29,15.22c0.113-1.26,0.044-2.811,0.019-5.258
  c-0.052-4.647-1.507-6.015-4.835-10.634c-2.222-3.079-2.001-5.162-4.102-6.194c-1.13-0.52-2.236-0.694-3.044-0.747
  c-0.182-0.012-0.35-0.02-0.498-0.021c-0.354-0.003-0.585,0.014-0.672,0.022c-0.166,0-0.353,0.003-0.531,0.006v-0.003
  l-0.773,0.008l-0.918,0.01l-0.493,0.003L33.44-7.596c-0.148,0-0.292,0-0.435,0c-6.764,0-8.024-0.32-13.274-0.611
  c-5.71-0.313-9.734-1.994-9.734-1.994S4.186,1.451,6.539,2.045c2.355,0.598,4.851,2.495,4.851,2.495
  c5.821,5.22,17.479,7.627,15.434,7.629c-2.046,0.002-2.769,0.276-3.142,2.317c-0.372,2.043,4.622,2.222,4.622,2.222
  s-0.404,0.708-0.038,2.547c0.109,0.545,0.793,0.739,1.701,0.739c2.146,0,5.553-1.074,5.553-1.074
  s-1.544,2.321,0.903,3.184c0.343,0.121,0.65,0.172,0.926,0.172c1.328,0,1.932-1.178,2.369-1.644
  c0.108-0.112,0.209-0.198,0.302-0.198c0.017,0,0.028,0.003,0.043,0.008c0.104,0.021,0.238,0.066,0.382,0.112
  c0.233,0.081,0.492,0.184,0.733,0.283c0.408,0.174,0.756,0.335,0.756,0.335c1.13,0.527,1.995,0.73,2.653,0.73
  c2.25,0,2.109-2.386,2.109-2.386s0.25-1.173-0.664-2.84c-0.129-0.233-0.278-0.478-0.458-0.728
  c-0.168-0.235-0.35-0.48-0.573-0.727c-0.739-0.842-1.776-1.75-3.263-2.665C36.023,9.03,35.46,7.279,35.46,7.279
  c0.117-1.596,1.132-2.003,2.141-2.003c0.331,0,0.652,0.044,0.946,0.101c0.189,0.093,0.385,0.205,0.582,0.324
  c0.184,0.107,0.367,0.223,0.556,0.345c1.688,1.123,3.397,2.726,3.543,2.862L43.3,9.301
  c0.235,0.683,0.331,1.344,0.349,1.91l0.313,1.711c1,0.789,1.734,1.567,2.276,2.297c0.181,0.25,0.346,0.495,0.487,0.73
  c0.149,0.25,0.284,0.495,0.394,0.728l1.92-0.004l13.717-0.01c0.256,0,0.466,0.216,0.466,0.484l0.006,6.503
  l-22.044,0.02l-0.003-1.773c-0.236-0.101-0.492-0.209-0.73-0.305c-0.069-0.026-0.141-0.055-0.204-0.079
  c-0.013,0.016-0.025,0.03-0.033,0.042c-0.128,0.167-0.292,0.371-0.487,0.583l0.006,7.315
  c0.002,1.072,0.864,1.94,1.922,1.94h0.004l21.119-0.021c1.059-0.001,1.923-0.871,1.922-1.944l-0.017-12.284
  C64.678,16.079,63.818,15.208,62.758,15.208z M63.235,27.626l0.001,1.805c0,0.271-0.207,0.489-0.464,0.489
  l-21.122,0.02c-0.256,0-0.462-0.218-0.462-0.488v-1.804L63.235,27.626z"
  />
 </g>
</svg>
