<?xml version="1.0" encoding="utf-8"?>
<!-- Generator: Adobe Illustrator 15.1.0, SVG Export Plug-In . SVG Version: 6.00 Build 0)  -->
<!DOCTYPE svg PUBLIC "-//W3C//DTD SVG 1.1//EN" "http://www.w3.org/Graphics/SVG/1.1/DTD/svg11.dtd">
<svg version="1.1" id="Capa_1" xmlns="http://www.w3.org/2000/svg" xmlns:xlink="http://www.w3.org/1999/xlink" x="0px" y="0px"
	 width="71px" height="71px" viewBox="0 0 71 71" enable-background="new 0 0 71 71" xml:space="preserve">
<g>
	<path fill="#FFFFFF" d="M44.235,49.274c-1.742-0.277-1.781-5.07-1.781-5.07s5.121-5.069,6.236-11.887
		c3.003,0,4.857-7.248,1.854-9.798C50.671,19.835,54.404,1.447,35.5,1.447S20.33,19.835,20.455,22.519
		c-3.002,2.55-1.148,9.798,1.854,9.798c1.116,6.817,6.238,11.887,6.238,11.887s-0.04,4.793-1.783,5.07
		c-5.614,0.893-26.578,10.14-26.578,20.279H35.5h35.314C70.814,59.414,49.851,50.167,44.235,49.274z"/>
</g>
</svg>
