<?xml version="1.0" encoding="utf-8"?>
<!-- Generator: Adobe Illustrator 15.1.0, SVG Export Plug-In . SVG Version: 6.00 Build 0)  -->
<!DOCTYPE svg PUBLIC "-//W3C//DTD SVG 1.1//EN" "http://www.w3.org/Graphics/SVG/1.1/DTD/svg11.dtd">
<svg version="1.1" id="Capa_1" xmlns="http://www.w3.org/2000/svg" xmlns:xlink="http://www.w3.org/1999/xlink" x="0px" y="0px"
	 width="71px" height="71px" viewBox="0 0 71 71" enable-background="new 0 0 71 71" xml:space="preserve">
<g>
	<path fill="#FFFFFF" d="M70.07,45.778c-1.891,7.528-5.13,14.479-11.528,16.848c-16.68,6.17-34.662-5.699-47.25,1.672L-0.341,52.669
		c6.235-2.638,14.183-12.793,23.416-13.979c4.797-0.618,10.843,2.099,16.847,2.658c5.282,0.492,14.217-2.312,15.075,3.548
		c0.74,5.07-8.207,4.796-14.188,5.317c4.679,0.937,9.729,5.309,13.58,4.243c4.969-1.369,7.547-8.706,11.006-10.834
		C69.311,41.211,70.825,42.76,70.07,45.778z M43.756,31.651v7.934c0.319-0.02,0.639-0.042,0.961-0.057
		c1.225-0.082,2.493-0.165,3.709-0.165c0.257,0,0.593,0.004,0.975,0.018c0.187-0.602,0.313-1.24,0.313-1.946
		c0-1.84-0.681-3.236-2.03-4.194C46.904,32.684,45.594,32.15,43.756,31.651z M36.28,21.97c0,1.453,0.483,2.599,1.454,3.416
		c0.975,0.826,2.284,1.402,3.925,1.721V16.741c-1.938,0.075-3.322,0.658-4.142,1.765C36.688,19.608,36.28,20.764,36.28,21.97z
		 M48.315,51.361c2.169,1.024,4.217,1.806,5.611,1.419c2.349-0.645,4.219-3.223,6.029-5.719c1.452-1.993,2.818-3.875,4.53-4.928
		c0.363-0.226,0.714-0.418,1.063-0.588c1.58-3.305,2.492-6.994,2.492-10.902c0-14-11.353-25.353-25.35-25.353
		c-14.005,0-25.352,11.353-25.352,25.353c0,2.602,0.395,5.116,1.125,7.478c1.421-0.556,2.881-0.967,4.393-1.162
		c2.755-0.351,5.778,0.257,8.958,1.012c-0.072-0.64-0.115-1.317-0.115-2.047h3.901c0.069,1.22,0.227,2.21,0.441,3.03
		c1.355,0.289,2.707,0.54,4.044,0.661c0.492,0.051,1.032,0.054,1.582,0.052v-8.546c-3.19-0.606-5.548-1.613-7.07-3.02
		c-1.52-1.414-2.281-3.368-2.281-5.868c0-2.235,0.817-4.252,2.457-6.039c1.643-1.794,3.939-2.708,6.895-2.739v-2.932h2.098v2.892
		c2.92,0.206,5.169,1.068,6.736,2.584c1.568,1.521,2.387,3.526,2.459,6.023h-3.861c-0.102-1.119-0.399-2.084-0.901-2.893
		c-0.933-1.486-2.404-2.265-4.433-2.34v10.743c3.408,0.953,5.726,1.852,6.943,2.692c1.99,1.384,2.98,3.424,2.98,6.131
		c0,1.404-0.167,2.649-0.496,3.766c1.661,0.686,3.155,1.994,3.527,4.527c0.21,1.426-0.13,2.731-0.965,3.769
		C54.266,50.232,51.478,50.977,48.315,51.361z"/>
</g>
</svg>
