<?xml version="1.0" encoding="utf-8"?>
<!-- Generator: Adobe Illustrator 15.1.0, SVG Export Plug-In . SVG Version: 6.00 Build 0)  -->
<!DOCTYPE svg PUBLIC "-//W3C//DTD SVG 1.1//EN" "http://www.w3.org/Graphics/SVG/1.1/DTD/svg11.dtd">
<svg version="1.1" id="Capa_1" xmlns="http://www.w3.org/2000/svg" xmlns:xlink="http://www.w3.org/1999/xlink" x="0px" y="0px"
	 width="71px" height="71px" viewBox="0 0 71 71" enable-background="new 0 0 71 71" xml:space="preserve">
<g>
	<path fill="#FFFFFF" d="M37.076,0.691c-14.272,0-25.884,11.612-25.884,25.885c0,3.723,0.762,7.277,2.264,10.565
		c6.471,14.162,18.879,29.113,22.529,33.358C36.259,70.815,36.657,71,37.077,71c0.418,0,0.818-0.185,1.091-0.501
		c3.647-4.245,16.056-19.194,22.53-33.358c1.503-3.288,2.264-6.842,2.264-10.565C62.961,12.303,51.349,0.691,37.076,0.691z
		 M37.076,40.021c-7.414,0-13.446-6.033-13.446-13.446c0-7.415,6.032-13.446,13.446-13.446c7.413,0,13.445,6.032,13.445,13.446
		C50.523,33.988,44.49,40.021,37.076,40.021z"/>
</g>
</svg>
