<?xml version="1.0" encoding="utf-8"?>
<!-- Generator: Adobe Illustrator 15.1.0, SVG Export Plug-In . SVG Version: 6.00 Build 0)  -->
<!DOCTYPE svg PUBLIC "-//W3C//DTD SVG 1.1//EN" "http://www.w3.org/Graphics/SVG/1.1/DTD/svg11.dtd">
<svg version="1.1" id="Capa_1" xmlns="http://www.w3.org/2000/svg" xmlns:xlink="http://www.w3.org/1999/xlink" x="0px" y="0px"
	 width="70.833px" height="70.833px" viewBox="0 0 70.833 70.833" enable-background="new 0 0 70.833 70.833" xml:space="preserve">
  <g>
	<path fill="#FFFFFF" d="M62.751,17.05L26.722,9.426c-1.524-0.323-3.035,0.66-3.357,2.186l-0.683,4.397l41.57,8.796
	 l0.684-4.398C65.259,18.884,64.274,17.374,62.751,17.05z"
	/>
	<path fill="#FFFFFF" d="M47.601,25.739c-0.423-1.515-2.007-2.41-3.521-1.99l-6.838,1.897l-16.124-3.412l-1.773,8.378
	 L8.265,33.688c-1.516,0.419-2.411,2.004-1.992,3.519l6.245,22.5c0.42,1.515,2.004,2.413,3.52,1.99l35.814-9.938
	 c1.515-0.423,2.412-2.005,1.989-3.521l-1.07-3.862l4.017,0.849c1.524,0.321,3.036-0.66,3.357-2.186l2.543-12.009
	 L48.217,27.97L47.601,25.739z M51.738,37.176l0.885-4.188c0.133-0.627,0.754-1.03,1.381-0.898l4.187,0.887
	 c0.628,0.134,1.03,0.753,0.897,1.382l-0.886,4.186c-0.132,0.628-0.753,1.032-1.38,0.899l-4.187-0.887
	 C52.006,38.424,51.605,37.801,51.738,37.176z M8.889,35.933l9.911-2.749l23.386-6.489l2.517-0.697
	 c0.046-0.013,0.091-0.02,0.137-0.02c0.202,0,0.443,0.133,0.515,0.386l0.295,1.065l0.926,3.336L9.741,40.983
	 L8.52,36.585C8.443,36.308,8.613,36.01,8.889,35.933z M51.598,48.863c0.047,0.171-0.003,0.31-0.051,0.399
	 c-0.052,0.088-0.146,0.202-0.318,0.249l-35.813,9.941c-0.044,0.011-0.092,0.017-0.136,0.017
	 c-0.202,0-0.444-0.133-0.515-0.388l-3.642-13.121l36.832-10.223l2.247,8.095L51.598,48.863z"
	/>
	<path fill="#FFFFFF" d="M21.201,49.758c-0.171-0.617-0.816-0.981-1.435-0.811l-4.183,1.161
	 c-0.618,0.171-0.983,0.816-0.812,1.436l1.162,4.182c0.171,0.617,0.816,0.984,1.435,0.812l4.183-1.162
	 c0.618-0.17,0.983-0.816,0.811-1.433L21.201,49.758z"
	/>												
  </g>
</svg>
