<?xml version="1.0" encoding="utf-8"?>
<!-- Generator: Adobe Illustrator 15.1.0, SVG Export Plug-In . SVG Version: 6.00 Build 0)  -->
<!DOCTYPE svg PUBLIC "-//W3C//DTD SVG 1.1//EN" "http://www.w3.org/Graphics/SVG/1.1/DTD/svg11.dtd" [
	<!ENTITY ns_extend "http://ns.adobe.com/Extensibility/1.0/">
	<!ENTITY ns_ai "http://ns.adobe.com/AdobeIllustrator/10.0/">
	<!ENTITY ns_graphs "http://ns.adobe.com/Graphs/1.0/">
	<!ENTITY ns_vars "http://ns.adobe.com/Variables/1.0/">
	<!ENTITY ns_imrep "http://ns.adobe.com/ImageReplacement/1.0/">
	<!ENTITY ns_sfw "http://ns.adobe.com/SaveForWeb/1.0/">
	<!ENTITY ns_custom "http://ns.adobe.com/GenericCustomNamespace/1.0/">
	<!ENTITY ns_adobe_xpath "http://ns.adobe.com/XPath/1.0/">
]>
<svg version="1.1" id="Capa_1" xmlns:x="&ns_extend;" xmlns:i="&ns_ai;" xmlns:graph="&ns_graphs;"
	 xmlns="http://www.w3.org/2000/svg" xmlns:xlink="http://www.w3.org/1999/xlink" x="0px" y="0px" width="70.713px"
	 height="70.713px" viewBox="0 0 70.713 70.713" enable-background="new 0 0 70.713 70.713" xml:space="preserve">
<metadata>
	<sfw  xmlns="&ns_sfw;">
		<slices></slices>
		<sliceSourceBounds  height="51.188" width="40.563" y="394.049" x="278.142" bottomLeftOrigin="true"></sliceSourceBounds>
	</sfw>
</metadata>
<g>
	<g>
		<path fill="#FFFFFF" d="M36.274,50.942c8.127,0,14.729-6.592,14.729-14.729c0-8.128-6.593-14.729-14.729-14.729
			c-4.241,0-8.064,1.796-10.75,4.658c-2.465,2.633-3.979,6.174-3.979,10.06C21.546,44.353,28.147,50.942,36.274,50.942z
			 M31.135,42.044c0.136-0.482,0.261-0.973,0.417-1.441c0.179-0.554,0.325-0.627,0.836-0.354c0.877,0.459,1.796,0.709,2.769,0.835
			c0.627,0.072,1.242,0.01,1.818-0.241c1.086-0.47,1.252-1.723,0.332-2.483c-0.313-0.262-0.668-0.449-1.033-0.606
			c-0.95-0.417-1.942-0.731-2.833-1.274c-1.451-0.867-2.38-2.068-2.266-3.833c0.125-2.006,1.254-3.249,3.091-3.918
			c0.753-0.272,0.764-0.261,0.764-1.056c0-0.271,0-0.532,0-0.805c0.01-0.594,0.115-0.699,0.71-0.721c0.188-0.01,0.365,0,0.553,0
			c1.266,0,1.266,0,1.275,1.265c0,0.899,0,0.899,0.897,1.034c0.679,0.104,1.337,0.303,1.964,0.586
			c0.346,0.156,0.48,0.397,0.377,0.763c-0.158,0.542-0.304,1.096-0.48,1.64c-0.168,0.512-0.324,0.584-0.814,0.345
			c-0.992-0.481-2.025-0.68-3.113-0.618c-0.281,0.012-0.564,0.054-0.834,0.168c-0.94,0.408-1.098,1.452-0.293,2.1
			c0.408,0.323,0.868,0.564,1.349,0.762c0.836,0.345,1.671,0.679,2.464,1.118c2.527,1.4,3.208,4.565,1.432,6.728
			c-0.646,0.783-1.481,1.306-2.453,1.576c-0.431,0.115-0.617,0.345-0.597,0.783s0,0.867,0,1.308c0,0.386-0.198,0.594-0.584,0.604
			c-0.47,0.012-0.942,0.012-1.402,0c-0.407-0.012-0.604-0.24-0.604-0.637c0-0.314-0.012-0.639-0.012-0.951
			c-0.01-0.699-0.031-0.73-0.699-0.836c-0.869-0.136-1.713-0.334-2.497-0.72C31.021,42.847,30.958,42.692,31.135,42.044z"/>
		<path fill="#FFFFFF" d="M52.226,52.177c-8.502,8.504-22.156,8.786-31.003,0.866h2.84v-3.028h-5.974h-0.073h-2.017v2.047v0.043
			v5.976h3.03v-2.937c4.869,4.438,11.053,6.664,17.237,6.664c6.561,0,13.111-2.496,18.104-7.49l1.076-1.075l-2.141-2.142
			L52.226,52.177z"/>
		<path fill="#FFFFFF" d="M53.521,14.35v2.936c-4.867-4.44-11.053-6.666-17.235-6.666c-6.56,0-13.11,2.497-18.103,7.491
			l-1.067,1.065l2.142,2.142l1.077-1.077c8.502-8.503,22.156-8.785,31.005-0.866h-2.841v3.029h5.978h0.069h2.017v-2.048v-0.042
			V14.35H53.521z"/>
	</g>
</g>
</svg>
